<?xml version="1.0" standalone="no"?>
<!DOCTYPE svg PUBLIC "-//W3C//DTD SVG 20010904//EN"
 "http://www.w3.org/TR/2001/REC-SVG-20010904/DTD/svg10.dtd">
<svg version="1.0" xmlns="http://www.w3.org/2000/svg"
 width="225.000000pt" height="225.000000pt" viewBox="0 0 225.000000 225.000000"
 preserveAspectRatio="xMidYMid meet">

<g transform="translate(0.000000,225.000000) scale(0.100000,-0.100000)"
fill="#000000" stroke="none">
<path d="M667 1869 c-100 -23 -213 -110 -267 -204 -91 -158 -75 -371 41 -568
56 -96 225 -263 349 -346 52 -35 148 -90 213 -122 134 -66 112 -67 264 9 204
103 408 266 509 408 170 238 178 521 21 691 -131 142 -317 182 -482 103 -64
-30 -144 -98 -176 -148 l-14 -23 -35 48 c-91 123 -271 188 -423 152z m160
-105 c2 -5 -22 -21 -52 -33 -123 -51 -229 -159 -289 -294 -14 -33 -30 -56 -36
-52 -5 3 -10 33 -10 65 0 172 70 276 210 314 61 17 171 17 177 0z"/>
</g>
</svg>
